PathFileType	4	(X/Y/Z)	E:\Qualisys_Data\Carbon_Farble_Plate\Data\Amateur_Runner\S1\T3\S1T3V12_c3d.trc
DataRate	CameraRate	NumFrames	NumMarkers	Units	OrigDataRate	OrigDataStartFrame	OrigNumFrames
200.000000	200.000000	5	39	mm	200.000000	161	322
Frame#	Time	LSHO			RSHO			LICST			RICST			LASIS			LHEEL			RASIS			LTROC			RTROC			SACR			LTH1			LSK4			LTH2			LTH3			RHM5			LSK2			LTH4			RTH1			LTOE			RTH2			RTH3			RTH4			LLEP			RLEP			LSK1			LSK3			RSK1			LHM5			RSK2			LFT1			RSK3			RSK4			LLME			RLME			RTOE			RHEEL			RFT1			RFT2			LFT2			
		X1	Y1	Z1	X2	Y2	Z2	X3	Y3	Z3	X4	Y4	Z4	X5	Y5	Z5	X6	Y6	Z6	X7	Y7	Z7	X8	Y8	Z8	X9	Y9	Z9	X10	Y10	Z10	X11	Y11	Z11	X12	Y12	Z12	X13	Y13	Z13	X14	Y14	Z14	X15	Y15	Z15	X16	Y16	Z16	X17	Y17	Z17	X18	Y18	Z18	X19	Y19	Z19	X20	Y20	Z20	X21	Y21	Z21	X22	Y22	Z22	X23	Y23	Z23	X24	Y24	Z24	X25	Y25	Z25	X26	Y26	Z26	X27	Y27	Z27	X28	Y28	Z28	X29	Y29	Z29	X30	Y30	Z30	X31	Y31	Z31	X32	Y32	Z32	X33	Y33	Z33	X34	Y34	Z34	X35	Y35	Z35	X36	Y36	Z36	X37	Y37	Z37	X38	Y38	Z38	X39	Y39	Z39	

162	0.805	133.576904296875	1521.04248046875	-468.5834655761719	53.11726760864258	1499.611694335938	-155.4045715332031	70.48534393310547	1043.97802734375	-469.1459655761719	63.99302673339844	1066.331420898438	-171.8697204589844	114.0028839111328	1004.557189941406	-442.6213989257812	-459.9509887695312	409.9642333984375	-384.0127258300781	103.8998184204102	1020.23388671875	-179.3156585693359	-4.600901126861572	929.6514892578124	-489.4322204589844	3.109626293182373	924.685302734375	-149.7084808349609	-50.45056533813477	1071.905883789062	-318.0648498535156	94.9966278076172	757.7763671875	-452.2945861816406	-325.1629333496094	456.00927734375	-409.9579162597656	18.98826026916504	765.3480834960938	-484.12841796875	77.108642578125	655.7201538085938	-439.6940612792969	409.4058227539062	129.6303558349609	-175.7040100097656	-234.6358947753906	488.3582458496094	-447.5603637695312	-3.044036388397217	668.4866333007812	-464.8594970703125	161.5169067382812	827.4197998046875	-162.8228912353516	-405.6455688476562	165.8982849121094	-360.707275390625	88.2652816772461	800.80126953125	-137.6972961425781	195.8793487548828	731.7289428710938	-164.3838348388672	117.9249649047852	705.3676147460938	-150.5664520263672	-18.92574691772461	515.9305419921875	-436.6212768554688	204.1530303955078	560.1764526367188	-193.931396484375	-206.5582580566406	409.1556091308594	-437.0859375	-303.8320007324219	381.7168273925781	-431.5766906738281	239.6357421875	372.8381042480469	-170.9563293457031	-449.4439086914062	219.7555999755859	-423.1727600097656	159.6639709472656	357.35009765625	-180.4559783935547	-480.5178527832031	399.6459350585938	-349.2628784179688	261.0837097167969	275.3597106933594	-183.2665557861328	183.4631652832031	260.779296875	-202.7997589111328	-421.3048095703125	362.8474731445312	-427.5087280273438	262.3559265136719	135.439453125	-183.5408172607422	449.779541015625	166.1116790771484	-247.8808746337891	217.3485412597656	69.67974090576172	-225.2555541992188	236.6044464111328	49.85293960571289	-259.281005859375	231.0983734130859	46.31052780151367	-206.1266784667969	-489.7738037109375	394.249267578125	-400.9375305175781
163	0.81	149.3577270507812	1517.386596679688	-467.1383056640625	69.63227081298828	1494.631103515625	-153.8646850585938	86.600341796875	1040.052856445312	-468.7053833007812	78.88428497314453	1062.68359375	-171.544189453125	129.9903869628906	1000.077087402344	-442.1922302246094	-438.4581298828125	413.6437683105469	-382.6723022460938	119.0734024047852	1016.979309082031	-178.7046813964844	12.21664714813232	924.990478515625	-489.4938049316406	18.4345531463623	921.3489379882812	-149.6117706298828	-35.0377311706543	1067.42333984375	-318.0957946777344	114.1562194824219	754.3036499023438	-452.8008117675781	-302.5423278808594	456.7531433105469	-409.3135986328125	37.28726577758789	760.8627319335938	-483.9266662597656	97.89369201660156	651.9632568359375	-440.6915588378906	417.6165466308594	121.8831481933594	-175.8212127685547	-211.7598266601562	487.7554931640625	-447.2158203125	17.22188949584961	663.583740234375	-464.9302062988281	178.2290344238281	825.5797729492188	-161.4745788574219	-387.9261779785156	168.1357269287109	-361.3240661621094	104.5450820922852	797.765380859375	-137.8448181152344	213.1705474853516	729.9078369140625	-164.3035278320312	134.7022705078125	702.8094482421875	-151.0020599365234	3.988579034805298	511.1024780273438	-436.9912414550781	219.8064575195312	556.3109741210938	-193.7095184326172	-185.1020660400391	407.5150146484375	-437.0864562988281	-282.9275817871094	381.9137268066406	-430.6057739257812	251.7234039306641	367.4424133300781	-170.5780944824219	-431.0514526367188	223.2619323730469	-423.1668090820312	171.8430938720703	353.6451721191406	-180.9943542480469	-458.6088562011719	403.2997131347656	-348.1974792480469	271.4826354980469	269.6299438476562	-183.4950103759766	194.0525054931641	257.2464294433594	-202.7522277832031	-400.7761535644531	365.8982543945312	-426.9042358398438	271.2173767089844	130.20166015625	-183.6544036865234	458.4372253417969	158.4249877929688	-248.3202362060547	224.6963195800781	69.48500061035156	-225.8117065429688	243.2233734130859	48.14943313598633	-260.0361328125	236.8231658935547	46.84525680541992	-206.4793548583984	-468.3262023925781	398.3594665527344	-399.9171142578125
164	0.815	164.9826507568359	1513.196655273438	-465.7679138183594	86.28875732421875	1489.522094726562	-152.4161224365234	102.1767883300781	1035.401123046875	-468.2915649414062	93.65042877197266	1059.26806640625	-171.1262512207031	145.3709869384766	996.8546142578124	-441.8468322753906	-416.3275756835938	417.118408203125	-382.0498046875	134.6350555419922	1013.794982910156	-177.7909545898438	28.57998085021973	919.9530029296876	-489.0093383789062	33.68368530273438	917.6012573242188	-149.3536376953125	-20.12728881835938	1062.488525390625	-318.1277465820312	132.7779388427734	750.9910278320312	-453.585693359375	-279.8136291503906	457.390625	-408.7835693359375	55.82083129882812	756.2899780273438	-484.0376586914062	118.3458404541016	648.1402587890625	-441.6231079101562	425.5018920898438	112.7582092285156	-175.8336029052734	-188.2236633300781	486.736572265625	-446.6610717773438	37.13444519042969	658.961181640625	-465.1450500488281	194.52294921875	822.9993896484375	-160.2416076660156	-369.5629577636719	170.7617340087891	-362.0175170898438	121.2633361816406	794.7186279296875	-137.7214202880859	228.2300872802734	726.7445068359375	-165.2174072265625	151.5692291259766	700.0173950195312	-151.5970153808594	26.87857437133789	506.4293823242188	-438.4542846679688	235.2830810546875	552.298583984375	-192.9472961425781	-163.3927764892578	405.7349853515625	-437.2804870605469	-261.7989501953125	382.2834167480469	-431.4931945800781	263.1546936035156	361.9074401855469	-170.4746856689453	-412.1080932617188	226.4777526855469	-423.4010009765625	183.4229431152344	349.8956298828125	-181.593505859375	-436.0007019042969	406.721435546875	-346.8292541503906	281.6050109863281	264.03173828125	-183.1022338867188	203.8042297363281	252.6442413330078	-203.1729736328125	-379.8238830566406	368.9815979003906	-426.5819091796875	279.3451843261719	126.0161361694336	-184.0949401855469	468.1518249511719	147.6771697998047	-248.5685729980469	230.29248046875	74.53507995605469	-226.6585083007812	246.6019744873047	50.25855255126953	-260.0716247558594	240.67578125	49.35711288452148	-206.5852508544922	-446.4408569335938	402.2359619140625	-398.7271728515625
165	0.82	180.8876495361328	1508.986206054688	-464.3963623046875	103.083251953125	1484.097290039062	-150.7723846435547	117.8762512207031	1030.853149414062	-467.9486389160156	108.4019775390625	1055.315551757812	-171.1201019287109	161.0137481689453	992.551513671875	-441.1374816894531	-393.9651794433594	419.8890686035156	-380.3078002929688	150.1314544677734	1010.725646972656	-177.4700164794922	45.22674560546875	914.9005737304688	-488.9150695800781	49.01555633544922	913.6636962890624	-149.5230865478516	-4.743721961975098	1057.650024414062	-318.235595703125	151.8106689453125	747.408935546875	-454.3174438476562	-256.6758728027344	457.6221923828125	-408.0066223144531	74.31338500976562	751.597900390625	-484.1441650390625	139.2593383789062	644.2628173828125	-443.0836181640625	432.3306274414062	101.714729309082	-176.4828338623047	-164.3849639892578	485.2777404785156	-446.5330200195312	57.54806137084961	653.72705078125	-465.1947326660156	210.8398895263672	820.0388793945312	-158.9710845947266	-350.3482971191406	172.7579040527344	-362.9751892089844	137.745849609375	790.7340698242188	-137.6912078857422	245.20361328125	723.9746704101562	-166.2368316650391	169.6936187744141	696.6256713867188	-153.1858825683594	50.47156524658203	501.9673461914062	-439.6335754394531	250.5107116699219	547.4310302734375	-192.2030181884766	-141.2969512939453	403.939697265625	-437.5546875	-240.0061492919922	382.1478881835938	-431.2606201171875	274.4263305664062	356.3426208496094	-170.3359985351562	-392.0147705078125	229.8172912597656	-423.5633850097656	194.4516754150391	345.2109680175781	-182.0692749023438	-413.7064208984375	409.9199523925781	-345.5341491699219	291.2728881835938	258.0585021972656	-182.9066772460938	213.9168548583984	248.5904388427734	-204.1563720703125	-358.11279296875	371.8924865722656	-425.9691772460938	287.2799682617188	121.6693801879883	-184.2336883544922	476.2427368164062	135.3079833984375	-248.4318389892578	236.0847778320312	74.760986328125	-226.0867309570312	250.1200714111328	51.82708358764648	-257.6920166015625	245.3293304443359	48.30509567260742	-206.3586730957031	-424.215087890625	406.1173706054688	-397.2750854492188
166	0.825	196.5105285644531	1504.37548828125	-463.3327941894531	119.7949295043945	1478.56689453125	-149.4547882080078	133.7692108154297	1026.06787109375	-467.8363647460938	123.3081588745117	1051.3583984375	-170.3462371826172	176.64599609375	988.4080810546876	-440.4971923828125	-371.1917114257812	422.4018249511719	-378.9618225097656	164.5706176757812	1006.521850585938	-176.7432250976562	61.5401725769043	909.6737670898438	-488.1884765625	64.2360610961914	909.0986938476562	-149.2599639892578	10.59164047241211	1052.732666015625	-318.3753051757812	170.72998046875	743.9509887695312	-455.4657592773438	-232.9219207763672	457.5568237304688	-407.4194030761719	92.7705535888672	746.6905517578125	-484.1218566894531	160.2250213623047	640.3046875	-444.496337890625	437.6552734375	89.05362701416016	-175.60888671875	-140.5384216308594	483.8653259277344	-446.4036560058594	77.45812225341797	648.0570678710938	-464.9836730957031	227.2043914794922	816.4207153320312	-158.0016326904297	-330.2566528320312	174.5009307861328	-363.6126403808594	153.9468994140625	786.595703125	-136.5846252441406	261.6766662597656	720.8624877929688	-166.5764617919922	186.1112060546875	692.8233032226562	-153.3298950195312	74.04032897949219	496.9749755859375	-440.44921875	265.3420104980469	542.8529663085938	-191.3818206787109	-118.712890625	402.1481628417969	-437.9972534179688	-217.9029693603516	382.1665344238281	-431.2337951660156	286.0170288085938	350.8576965332031	-170.2845764160156	-371.5144348144531	232.5550231933594	-423.7742309570312	205.5583190917969	341.7774963378906	-182.3410491943359	-390.9690551757812	412.3458862304688	-344.104248046875	300.7863464355469	252.2728881835938	-182.8382720947266	223.2314453125	243.885986328125	-205.4972991943359	-336.1256713867188	374.2311706542969	-424.7605590820312	294.2749328613281	117.2747497558594	-184.2102966308594	483.9438781738281	120.570915222168	-247.5142517089844	241.1259765625	73.28655242919922	-225.632568359375	254.0148468017578	51.07041168212891	-257.2600708007812	248.7293395996094	48.15455627441406	-206.2821655273438	-401.6473999023438	409.2741088867188	-396.0085754394531
